<svg width="200" height="200" viewBox="0 0 200 200" fill="none" xmlns="http://www.w3.org/2000/svg">
<rect width="200" height="200" fill="#DAFF8A"/>
<ellipse cx="85.3384" cy="87.2444" rx="18.5" ry="31" transform="rotate(-49.2807 85.3384 87.2444)" fill="#B1003B"/>
<ellipse cx="104.954" cy="81.2013" rx="18.5" ry="31" transform="rotate(18.0126 104.954 81.2013)" fill="#B1003B"/>
<ellipse cx="79.9538" cy="111.201" rx="18.5" ry="31" transform="rotate(44.6925 79.9538 111.201)" fill="#B1003B"/>
<ellipse cx="100.207" cy="118.548" rx="18.5" ry="31" transform="rotate(-13.9612 100.207 118.548)" fill="#B1003B"/>
<ellipse cx="118.833" cy="99.9106" rx="18.5" ry="31" transform="rotate(118.069 118.833 99.9106)" fill="#B1003B"/>
<ellipse cx="85.3384" cy="87.2444" rx="18.5" ry="31" transform="rotate(-49.2807 85.3384 87.2444)" fill="#B1003B"/>
<ellipse cx="104.954" cy="81.2013" rx="18.5" ry="31" transform="rotate(18.0126 104.954 81.2013)" fill="#B1003B"/>
<ellipse cx="79.9538" cy="111.201" rx="18.5" ry="31" transform="rotate(44.6925 79.9538 111.201)" fill="#B1003B"/>
<ellipse cx="100.207" cy="118.548" rx="18.5" ry="31" transform="rotate(-13.9612 100.207 118.548)" fill="#B1003B"/>
<ellipse cx="118.833" cy="99.9106" rx="18.5" ry="31" transform="rotate(118.069 118.833 99.9106)" fill="#B1003B"/>
</svg>
